<svg width="190" height="69" viewBox="0 0 190 69" fill="none" xmlns="http://www.w3.org/2000/svg">
<path d="M176.001 49.8831V29.4831H181.881V34.2831H182.001V49.8831H176.001ZM182.001 39.2431L181.481 34.4031C181.961 32.6698 182.748 31.3498 183.841 30.4431C184.935 29.5364 186.295 29.0831 187.921 29.0831C188.428 29.0831 188.801 29.1364 189.041 29.2431V34.8431C188.908 34.7898 188.721 34.7631 188.481 34.7631C188.241 34.7364 187.948 34.7231 187.601 34.7231C185.681 34.7231 184.268 35.0698 183.361 35.7631C182.455 36.4298 182.001 37.5898 182.001 39.2431Z" fill="#212729"/>
<path d="M162.633 50.2831C160.366 50.2831 158.393 49.8431 156.713 48.9631C155.033 48.0564 153.726 46.8031 152.793 45.2031C151.886 43.6031 151.433 41.7631 151.433 39.6831C151.433 37.5764 151.886 35.7364 152.793 34.1631C153.726 32.5631 155.019 31.3231 156.673 30.4431C158.326 29.5364 160.246 29.0831 162.433 29.0831C164.539 29.0831 166.366 29.5098 167.913 30.3631C169.459 31.2164 170.659 32.4031 171.513 33.9231C172.366 35.4431 172.793 37.2298 172.793 39.2831C172.793 39.7098 172.779 40.1098 172.753 40.4831C172.726 40.8298 172.686 41.1631 172.633 41.4831H154.953V37.5231H167.793L166.753 38.2431C166.753 36.5898 166.353 35.3764 165.553 34.6031C164.779 33.8031 163.713 33.4031 162.353 33.4031C160.779 33.4031 159.553 33.9364 158.673 35.0031C157.819 36.0698 157.393 37.6698 157.393 39.8031C157.393 41.8831 157.819 43.4298 158.673 44.4431C159.553 45.4564 160.859 45.9631 162.593 45.9631C163.553 45.9631 164.379 45.8031 165.073 45.4831C165.766 45.1631 166.286 44.6431 166.633 43.9231H172.273C171.606 45.8964 170.459 47.4564 168.833 48.6031C167.233 49.7231 165.166 50.2831 162.633 50.2831Z" fill="#212729"/>
<path d="M140.413 49.8831V28.1231C140.413 25.6698 141.08 23.8164 142.413 22.5631C143.747 21.3098 145.72 20.6831 148.333 20.6831C148.893 20.6831 149.373 20.7098 149.773 20.7631C150.2 20.8164 150.613 20.9098 151.013 21.0431V25.6431C150.827 25.5631 150.6 25.5098 150.333 25.4831C150.067 25.4298 149.747 25.4031 149.373 25.4031C148.36 25.4031 147.613 25.6431 147.133 26.1231C146.653 26.6031 146.413 27.2964 146.413 28.2031V49.8831H140.413ZM137.013 34.0431V29.4831H150.573V34.0431H137.013Z" fill="#212729"/>
<path d="M114.83 49.8831V29.4831H120.71V34.2831H120.83V49.8831H114.83ZM129.03 49.8831V37.2431C129.03 36.1231 128.736 35.2831 128.15 34.7231C127.59 34.1631 126.763 33.8831 125.67 33.8831C124.736 33.8831 123.896 34.0964 123.15 34.5231C122.43 34.9498 121.856 35.5364 121.43 36.2831C121.03 37.0298 120.83 37.9098 120.83 38.9231L120.31 34.0031C120.976 32.5098 121.95 31.3231 123.23 30.4431C124.536 29.5364 126.136 29.0831 128.03 29.0831C130.296 29.0831 132.03 29.7231 133.23 31.0031C134.43 32.2564 135.03 33.9498 135.03 36.0831V49.8831H129.03Z" fill="#212729"/>
<path d="M100.369 50.2831C98.1289 50.2831 96.1555 49.8431 94.4489 48.9631C92.7689 48.0564 91.4489 46.8031 90.4889 45.2031C89.5555 43.5764 89.0889 41.7098 89.0889 39.6031C89.0889 37.4964 89.5555 35.6564 90.4889 34.0831C91.4489 32.5098 92.7689 31.2831 94.4489 30.4031C96.1555 29.5231 98.1289 29.0831 100.369 29.0831C102.636 29.0831 104.609 29.5231 106.289 30.4031C107.996 31.2831 109.316 32.5098 110.249 34.0831C111.182 35.6564 111.649 37.4964 111.649 39.6031C111.649 41.7098 111.169 43.5764 110.209 45.2031C109.276 46.8031 107.956 48.0564 106.249 48.9631C104.569 49.8431 102.609 50.2831 100.369 50.2831ZM100.369 45.5631C101.302 45.5631 102.142 45.3231 102.889 44.8431C103.662 44.3631 104.276 43.6831 104.729 42.8031C105.182 41.8964 105.409 40.8164 105.409 39.5631C105.409 37.7231 104.916 36.3098 103.929 35.3231C102.969 34.3098 101.782 33.8031 100.369 33.8031C98.9555 33.8031 97.7555 34.3098 96.7689 35.3231C95.8089 36.3364 95.3289 37.7498 95.3289 39.5631C95.3289 40.8164 95.5555 41.8964 96.0089 42.8031C96.4622 43.6831 97.0622 44.3631 97.8089 44.8431C98.5822 45.3231 99.4355 45.5631 100.369 45.5631Z" fill="#212729"/>
<path d="M64 49.8831V21.0831H70.16V49.8831H64ZM68.2 34.9231L81.16 21.0831H89.36L75.68 34.9231H68.2ZM81.8 49.8831L68.12 34.9231H75.68L90.16 49.8831H81.8Z" fill="#212729"/>
<path d="M185.629 66.0031C184.949 66.0031 184.357 65.8711 183.853 65.6071C183.349 65.3351 182.957 64.9591 182.677 64.4791C182.405 63.9991 182.269 63.4471 182.269 62.8231C182.269 62.1911 182.405 61.6391 182.677 61.1671C182.957 60.6871 183.345 60.3151 183.841 60.0511C184.337 59.7791 184.913 59.6431 185.569 59.6431C186.201 59.6431 186.749 59.7711 187.213 60.0271C187.677 60.2831 188.037 60.6391 188.293 61.0951C188.549 61.5511 188.677 62.0871 188.677 62.7031C188.677 62.8311 188.673 62.9511 188.665 63.0631C188.657 63.1671 188.645 63.2671 188.629 63.3631H183.325V62.1751H187.177L186.865 62.3911C186.865 61.8951 186.745 61.5311 186.505 61.2991C186.273 61.0591 185.953 60.9391 185.545 60.9391C185.073 60.9391 184.705 61.0991 184.441 61.4191C184.185 61.7391 184.057 62.2191 184.057 62.8591C184.057 63.4831 184.185 63.9471 184.441 64.2511C184.705 64.5551 185.097 64.7071 185.617 64.7071C185.905 64.7071 186.153 64.6591 186.361 64.5631C186.569 64.4671 186.725 64.3111 186.829 64.0951H188.521C188.321 64.6871 187.977 65.1551 187.489 65.4991C187.009 65.8351 186.389 66.0031 185.629 66.0031Z" fill="black"/>
<path d="M178.818 66.0031C178.178 66.0031 177.614 65.8671 177.126 65.5951C176.638 65.3231 176.254 64.9471 175.974 64.4671C175.702 63.9871 175.566 63.4391 175.566 62.8231C175.566 62.2071 175.702 61.6591 175.974 61.1791C176.254 60.6991 176.638 60.3231 177.126 60.0511C177.614 59.7791 178.178 59.6431 178.818 59.6431C179.354 59.6431 179.834 59.7431 180.258 59.9431C180.69 60.1351 181.042 60.4031 181.314 60.7471C181.594 61.0911 181.774 61.4951 181.854 61.9591H180.114C180.026 61.6631 179.866 61.4391 179.634 61.2871C179.41 61.1351 179.146 61.0591 178.842 61.0591C178.554 61.0591 178.302 61.1311 178.086 61.2751C177.878 61.4191 177.718 61.6231 177.606 61.8871C177.494 62.1511 177.438 62.4631 177.438 62.8231C177.438 63.1831 177.494 63.4951 177.606 63.7591C177.718 64.0231 177.878 64.2271 178.086 64.3711C178.302 64.5151 178.554 64.5871 178.842 64.5871C179.146 64.5871 179.41 64.5111 179.634 64.3591C179.866 64.2071 180.026 63.9831 180.114 63.6871H181.854C181.774 64.1511 181.594 64.5551 181.314 64.8991C181.042 65.2431 180.69 65.5151 180.258 65.7151C179.834 65.9071 179.354 66.0031 178.818 66.0031Z" fill="black"/>
<path d="M168.616 65.8831V59.7631H170.38V61.2031H170.416V65.8831H168.616ZM172.876 65.8831V62.0911C172.876 61.7551 172.788 61.5031 172.612 61.3351C172.444 61.1671 172.196 61.0831 171.868 61.0831C171.588 61.0831 171.336 61.1471 171.112 61.2751C170.896 61.4031 170.724 61.5791 170.596 61.8031C170.476 62.0271 170.416 62.2911 170.416 62.5951L170.26 61.1191C170.46 60.6711 170.752 60.3151 171.136 60.0511C171.528 59.7791 172.008 59.6431 172.576 59.6431C173.256 59.6431 173.776 59.8351 174.136 60.2191C174.496 60.5951 174.676 61.1031 174.676 61.7431V65.8831H172.876Z" fill="black"/>
<path d="M164.606 66.0031C163.926 66.0031 163.334 65.8711 162.83 65.6071C162.326 65.3351 161.934 64.9591 161.654 64.4791C161.382 63.9991 161.246 63.4471 161.246 62.8231C161.246 62.1911 161.382 61.6391 161.654 61.1671C161.934 60.6871 162.322 60.3151 162.818 60.0511C163.314 59.7791 163.89 59.6431 164.546 59.6431C165.178 59.6431 165.726 59.7711 166.19 60.0271C166.654 60.2831 167.014 60.6391 167.27 61.0951C167.526 61.5511 167.654 62.0871 167.654 62.7031C167.654 62.8311 167.65 62.9511 167.642 63.0631C167.634 63.1671 167.622 63.2671 167.606 63.3631H162.302V62.1751H166.154L165.842 62.3911C165.842 61.8951 165.722 61.5311 165.482 61.2991C165.25 61.0591 164.93 60.9391 164.522 60.9391C164.05 60.9391 163.682 61.0991 163.418 61.4191C163.162 61.7391 163.034 62.2191 163.034 62.8591C163.034 63.4831 163.162 63.9471 163.418 64.2511C163.682 64.5551 164.074 64.7071 164.594 64.7071C164.882 64.7071 165.13 64.6591 165.338 64.5631C165.546 64.4671 165.702 64.3111 165.806 64.0951H167.498C167.298 64.6871 166.954 65.1551 166.466 65.4991C165.986 65.8351 165.366 66.0031 164.606 66.0031Z" fill="black"/>
<path d="M157.038 65.8831V59.7631H158.802V61.2031H158.838V65.8831H157.038ZM158.838 62.6911L158.682 61.2391C158.826 60.7191 159.062 60.3231 159.39 60.0511C159.718 59.7791 160.126 59.6431 160.614 59.6431C160.766 59.6431 160.878 59.6591 160.95 59.6911V61.3711C160.91 61.3551 160.854 61.3471 160.782 61.3471C160.71 61.3391 160.622 61.3351 160.518 61.3351C159.942 61.3351 159.518 61.4391 159.246 61.6471C158.974 61.8471 158.838 62.1951 158.838 62.6911Z" fill="black"/>
<path d="M153.027 66.0031C152.347 66.0031 151.755 65.8711 151.251 65.6071C150.747 65.3351 150.355 64.9591 150.075 64.4791C149.803 63.9991 149.667 63.4471 149.667 62.8231C149.667 62.1911 149.803 61.6391 150.075 61.1671C150.355 60.6871 150.743 60.3151 151.239 60.0511C151.735 59.7791 152.311 59.6431 152.967 59.6431C153.599 59.6431 154.147 59.7711 154.611 60.0271C155.075 60.2831 155.435 60.6391 155.691 61.0951C155.947 61.5511 156.075 62.0871 156.075 62.7031C156.075 62.8311 156.071 62.9511 156.063 63.0631C156.055 63.1671 156.043 63.2671 156.027 63.3631H150.723V62.1751H154.575L154.263 62.3911C154.263 61.8951 154.143 61.5311 153.903 61.2991C153.671 61.0591 153.351 60.9391 152.943 60.9391C152.471 60.9391 152.103 61.0991 151.839 61.4191C151.583 61.7391 151.455 62.2191 151.455 62.8591C151.455 63.4831 151.583 63.9471 151.839 64.2511C152.103 64.5551 152.495 64.7071 153.015 64.7071C153.303 64.7071 153.551 64.6591 153.759 64.5631C153.967 64.4671 154.123 64.3111 154.227 64.0951H155.919C155.719 64.6871 155.375 65.1551 154.887 65.4991C154.407 65.8351 153.787 66.0031 153.027 66.0031Z" fill="black"/>
<path d="M146.361 65.8831V59.3551C146.361 58.6191 146.561 58.0631 146.961 57.6871C147.361 57.3111 147.953 57.1231 148.737 57.1231C148.905 57.1231 149.049 57.1311 149.169 57.1471C149.297 57.1631 149.421 57.1911 149.541 57.2311V58.6111C149.485 58.5871 149.417 58.5711 149.337 58.5631C149.257 58.5471 149.161 58.5391 149.049 58.5391C148.745 58.5391 148.521 58.6111 148.377 58.7551C148.233 58.8991 148.161 59.1071 148.161 59.3791V65.8831H146.361ZM145.341 61.1311V59.7631H149.409V61.1311H145.341Z" fill="black"/>
<path d="M138.687 65.8831V59.7631H140.451V61.2031H140.487V65.8831H138.687ZM142.947 65.8831V62.0911C142.947 61.7551 142.859 61.5031 142.683 61.3351C142.515 61.1671 142.267 61.0831 141.939 61.0831C141.659 61.0831 141.407 61.1471 141.183 61.2751C140.967 61.4031 140.795 61.5791 140.667 61.8031C140.547 62.0271 140.487 62.2911 140.487 62.5951L140.331 61.1191C140.531 60.6711 140.823 60.3151 141.207 60.0511C141.599 59.7791 142.079 59.6431 142.647 59.6431C143.327 59.6431 143.847 59.8351 144.207 60.2191C144.567 60.5951 144.747 61.1031 144.747 61.7431V65.8831H142.947Z" fill="black"/>
<path d="M134.348 66.0031C133.676 66.0031 133.084 65.8711 132.572 65.6071C132.068 65.3351 131.672 64.9591 131.384 64.4791C131.104 63.9911 130.964 63.4311 130.964 62.7991C130.964 62.1671 131.104 61.6151 131.384 61.1431C131.672 60.6711 132.068 60.3031 132.572 60.0391C133.084 59.7751 133.676 59.6431 134.348 59.6431C135.028 59.6431 135.62 59.7751 136.124 60.0391C136.636 60.3031 137.032 60.6711 137.312 61.1431C137.592 61.6151 137.732 62.1671 137.732 62.7991C137.732 63.4311 137.588 63.9911 137.3 64.4791C137.02 64.9591 136.624 65.3351 136.112 65.6071C135.608 65.8711 135.02 66.0031 134.348 66.0031ZM134.348 64.5871C134.628 64.5871 134.88 64.5151 135.104 64.3711C135.336 64.2271 135.52 64.0231 135.656 63.7591C135.792 63.4871 135.86 63.1631 135.86 62.7871C135.86 62.2351 135.712 61.8111 135.416 61.5151C135.128 61.2111 134.772 61.0591 134.348 61.0591C133.924 61.0591 133.564 61.2111 133.268 61.5151C132.98 61.8191 132.836 62.2431 132.836 62.7871C132.836 63.1631 132.904 63.4871 133.04 63.7591C133.176 64.0231 133.356 64.2271 133.58 64.3711C133.812 64.5151 134.068 64.5871 134.348 64.5871Z" fill="black"/>
<path d="M126.439 66.0031C125.815 66.0031 125.239 65.8951 124.711 65.6791C124.183 65.4551 123.723 65.1431 123.331 64.7431C122.947 64.3431 122.647 63.8711 122.431 63.3271C122.215 62.7751 122.107 62.1751 122.107 61.5271C122.107 60.8791 122.211 60.2871 122.419 59.7511C122.635 59.2151 122.935 58.7511 123.319 58.3591C123.711 57.9591 124.171 57.6551 124.699 57.4471C125.227 57.2311 125.807 57.1231 126.439 57.1231C127.151 57.1231 127.791 57.2631 128.359 57.5431C128.935 57.8151 129.403 58.2031 129.763 58.7071C130.131 59.2031 130.355 59.7871 130.435 60.4591H128.635C128.531 59.8431 128.279 59.3791 127.879 59.0671C127.479 58.7471 127.003 58.5871 126.451 58.5871C125.963 58.5871 125.531 58.7031 125.155 58.9351C124.787 59.1671 124.499 59.5031 124.291 59.9431C124.083 60.3751 123.979 60.8991 123.979 61.5151C123.979 62.1391 124.083 62.6791 124.291 63.1351C124.507 63.5831 124.803 63.9311 125.179 64.1791C125.555 64.4191 125.987 64.5391 126.475 64.5391C126.995 64.5391 127.455 64.3831 127.855 64.0711C128.255 63.7591 128.515 63.2951 128.635 62.6791H130.459C130.355 63.3511 130.119 63.9391 129.751 64.4431C129.383 64.9391 128.915 65.3231 128.347 65.5951C127.779 65.8671 127.143 66.0031 126.439 66.0031Z" fill="black"/>
<path d="M117.082 65.8831L112.618 61.1311C112.362 60.8511 112.162 60.6031 112.018 60.3871C111.874 60.1711 111.774 59.9671 111.718 59.7751C111.662 59.5751 111.634 59.3631 111.634 59.1391C111.634 58.7711 111.738 58.4351 111.946 58.1311C112.154 57.8271 112.446 57.5831 112.822 57.3991C113.198 57.2151 113.634 57.1231 114.13 57.1231C114.61 57.1231 115.038 57.2111 115.414 57.3871C115.798 57.5551 116.098 57.7991 116.314 58.1191C116.538 58.4311 116.65 58.8071 116.65 59.2471C116.65 59.7431 116.466 60.2031 116.098 60.6271C115.738 61.0431 115.214 61.3671 114.526 61.5991L113.674 60.5791C114.178 60.4031 114.538 60.1951 114.754 59.9551C114.978 59.7151 115.09 59.4591 115.09 59.1871C115.09 58.9551 115.014 58.7591 114.862 58.5991C114.71 58.4311 114.482 58.3471 114.178 58.3471C113.882 58.3471 113.662 58.4311 113.518 58.5991C113.382 58.7671 113.314 58.9431 113.314 59.1271C113.314 59.2551 113.338 59.3911 113.386 59.5351C113.442 59.6791 113.562 59.8671 113.746 60.0991C113.93 60.3231 114.21 60.6311 114.586 61.0231L119.386 65.8831H117.082ZM113.83 66.0031C113.142 66.0031 112.538 65.8951 112.018 65.6791C111.506 65.4631 111.106 65.1671 110.818 64.7911C110.53 64.4151 110.386 63.9831 110.386 63.4951C110.386 62.8071 110.614 62.2391 111.07 61.7911C111.534 61.3351 112.222 60.9631 113.134 60.6751L113.962 61.7191C113.498 61.8791 113.134 62.0431 112.87 62.2111C112.614 62.3791 112.434 62.5551 112.33 62.7391C112.234 62.9151 112.186 63.1071 112.186 63.3151C112.186 63.6991 112.342 63.9991 112.654 64.2151C112.974 64.4311 113.422 64.5391 113.998 64.5391C114.374 64.5391 114.742 64.4831 115.102 64.3711C115.462 64.2591 115.79 64.0751 116.086 63.8191C116.382 63.5631 116.618 63.2231 116.794 62.7991C116.97 62.3751 117.058 61.8511 117.058 61.2271H118.75C118.75 61.7871 118.666 62.3111 118.498 62.7991C118.338 63.2871 118.11 63.7311 117.814 64.1311C117.518 64.5231 117.166 64.8591 116.758 65.1391C116.35 65.4191 115.898 65.6351 115.402 65.7871C114.906 65.9311 114.382 66.0031 113.83 66.0031Z" fill="black"/>
<path d="M105.029 66.0031C104.133 66.0031 103.421 65.8231 102.893 65.4631C102.365 65.1031 102.077 64.6071 102.029 63.9751H103.637C103.677 64.2471 103.813 64.4551 104.045 64.5991C104.285 64.7351 104.613 64.8031 105.029 64.8031C105.405 64.8031 105.677 64.7511 105.845 64.6471C106.021 64.5351 106.109 64.3791 106.109 64.1791C106.109 64.0271 106.057 63.9111 105.953 63.8311C105.857 63.7431 105.677 63.6711 105.413 63.6151L104.429 63.4111C103.701 63.2591 103.165 63.0311 102.821 62.7271C102.477 62.4151 102.305 62.0151 102.305 61.5271C102.305 60.9351 102.533 60.4751 102.989 60.1471C103.445 59.8111 104.081 59.6431 104.897 59.6431C105.705 59.6431 106.349 59.8071 106.829 60.1351C107.309 60.4551 107.573 60.9031 107.621 61.4791H106.013C105.981 61.2711 105.869 61.1151 105.677 61.0111C105.485 60.8991 105.213 60.8431 104.861 60.8431C104.541 60.8431 104.301 60.8911 104.141 60.9871C103.989 61.0751 103.913 61.2031 103.913 61.3711C103.913 61.5151 103.977 61.6311 104.105 61.7191C104.233 61.7991 104.445 61.8711 104.741 61.9351L105.845 62.1631C106.461 62.2911 106.925 62.5311 107.237 62.8831C107.557 63.2271 107.717 63.6351 107.717 64.1071C107.717 64.7071 107.481 65.1751 107.009 65.5111C106.545 65.8391 105.885 66.0031 105.029 66.0031Z" fill="black"/>
<path d="M100.481 66.0151C99.6969 66.0151 99.1129 65.8271 98.7289 65.4511C98.3529 65.0671 98.1649 64.4871 98.1649 63.7111V58.3951L99.9649 57.7231V63.7711C99.9649 64.0431 100.041 64.2471 100.193 64.3831C100.345 64.5191 100.581 64.5871 100.901 64.5871C101.021 64.5871 101.133 64.5751 101.237 64.5511C101.341 64.5271 101.445 64.4991 101.549 64.4671V65.8351C101.445 65.8911 101.297 65.9351 101.105 65.9671C100.921 65.9991 100.713 66.0151 100.481 66.0151ZM97.0249 61.1311V59.7631H101.549V61.1311H97.0249Z" fill="black"/>
<path d="M90.4053 65.8831V59.7631H92.1693V61.2031H92.2053V65.8831H90.4053ZM94.6653 65.8831V62.0911C94.6653 61.7551 94.5773 61.5031 94.4013 61.3351C94.2333 61.1671 93.9853 61.0831 93.6573 61.0831C93.3773 61.0831 93.1253 61.1471 92.9013 61.2751C92.6853 61.4031 92.5133 61.5791 92.3853 61.8031C92.2653 62.0271 92.2053 62.2911 92.2053 62.5951L92.0493 61.1191C92.2493 60.6711 92.5413 60.3151 92.9253 60.0511C93.3173 59.7791 93.7973 59.6431 94.3653 59.6431C95.0453 59.6431 95.5653 59.8351 95.9253 60.2191C96.2853 60.5951 96.4653 61.1031 96.4653 61.7431V65.8831H94.6653Z" fill="black"/>
<path d="M86.3947 66.0031C85.7147 66.0031 85.1227 65.8711 84.6187 65.6071C84.1147 65.3351 83.7227 64.9591 83.4427 64.4791C83.1707 63.9991 83.0347 63.4471 83.0347 62.8231C83.0347 62.1911 83.1707 61.6391 83.4427 61.1671C83.7227 60.6871 84.1107 60.3151 84.6067 60.0511C85.1027 59.7791 85.6787 59.6431 86.3347 59.6431C86.9667 59.6431 87.5147 59.7711 87.9787 60.0271C88.4427 60.2831 88.8027 60.6391 89.0587 61.0951C89.3147 61.5511 89.4427 62.0871 89.4427 62.7031C89.4427 62.8311 89.4387 62.9511 89.4307 63.0631C89.4227 63.1671 89.4107 63.2671 89.3947 63.3631H84.0907V62.1751H87.9427L87.6307 62.3911C87.6307 61.8951 87.5107 61.5311 87.2707 61.2991C87.0387 61.0591 86.7187 60.9391 86.3107 60.9391C85.8387 60.9391 85.4707 61.0991 85.2067 61.4191C84.9507 61.7391 84.8227 62.2191 84.8227 62.8591C84.8227 63.4831 84.9507 63.9471 85.2067 64.2511C85.4707 64.5551 85.8627 64.7071 86.3827 64.7071C86.6707 64.7071 86.9187 64.6591 87.1267 64.5631C87.3347 64.4671 87.4907 64.3111 87.5947 64.0951H89.2867C89.0867 64.6871 88.7427 65.1551 88.2547 65.4991C87.7747 65.8351 87.1547 66.0031 86.3947 66.0031Z" fill="black"/>
<path d="M78.8544 65.8831L76.4424 59.7631H78.3744L80.2584 65.4751H79.2504L81.1224 59.7631H83.0064L80.5944 65.8831H78.8544Z" fill="black"/>
<path d="M70 65.8831V57.2431H71.848V65.8831H70ZM70.864 65.8831V64.4671H76.432V65.8831H70.864ZM70.864 62.1631V60.7711H76.012V62.1631H70.864ZM70.864 58.6591V57.2431H76.288V58.6591H70.864Z" fill="black"/>
<path d="M58.855 8.85034C52.7002 8.52411 47.4588 13.2544 47.1326 19.4092C47.0783 20.3987 47.1652 21.3665 47.361 22.2908C47.4045 21.671 47.4915 21.0511 47.6219 20.4531C48.0569 18.3978 48.9595 16.484 50.21 14.8964C49.2205 16.6689 48.6659 18.6262 48.568 20.5835C48.5245 21.4752 48.5789 22.3669 48.7202 23.226C50.6341 16.745 56.7998 12.1669 63.8462 12.5367C64.9336 12.591 65.9884 12.765 66.9997 13.0369C65.0641 10.6337 62.1607 9.02432 58.855 8.85034Z" fill="url(#paint0_linear_394_149)"/>
<path d="M13.0495 53.905C26.9032 47.9133 42.997 54.2965 48.9887 68.1502C49.0213 68.2263 49.0539 68.3024 49.0865 68.3785C49.5976 64.5834 49.1192 60.6035 47.488 56.8301C42.7143 45.7928 29.9045 40.7146 18.8672 45.4884C13.4301 47.8372 9.45015 52.1325 7.3623 57.2107C9.0913 55.9167 10.9834 54.7967 13.0495 53.905Z" fill="url(#paint1_linear_394_149)"/>
<path opacity="0.51" d="M49.2057 63.6265C49.01 61.3429 48.4554 59.0594 47.4985 56.841C42.7247 45.8037 29.9149 40.7255 18.8777 45.4993C16.3766 46.5758 14.18 48.0764 12.3423 49.8707C12.6576 49.7184 12.973 49.5662 13.2883 49.4248C27.1312 43.444 43.1923 49.7945 49.2057 63.6265Z" fill="url(#paint2_linear_394_149)"/>
<path d="M34.9823 40.3558C33.1554 39.2466 31.0349 38.5398 28.8166 38.3658C31.0241 38.2027 33.3185 38.5506 35.4499 39.4206C35.4716 39.4315 35.5042 39.4423 35.526 39.4532C33.3512 37.4523 30.5347 35.9843 27.316 35.3754C18.8341 33.7878 10.7763 38.7681 9.33008 46.5106C9.33008 46.5214 9.33008 46.5214 9.33008 46.5323C13.9734 41.3453 21.5418 38.6594 29.393 40.1383C33.1119 40.8342 36.4285 42.3784 39.158 44.5097C39.071 44.2922 38.9622 44.0856 38.8644 43.879C37.8204 42.4871 36.5155 41.2801 34.9823 40.3558Z" fill="url(#paint3_linear_394_149)"/>
<path d="M37.8294 0L38.0034 3.80596C38.0143 4.07782 38.384 4.13221 38.4819 3.89297L39.939 0.369751L39.1996 4.11044C39.1452 4.37142 39.4932 4.52368 39.6454 4.3062L41.9073 1.23967L40.2979 4.68677C40.1892 4.926 40.4828 5.15438 40.6894 4.98039L43.6145 2.54459L41.2222 5.51322C41.0591 5.71982 41.2874 6.01343 41.5267 5.89382L44.9521 4.23007L41.9181 6.53539C41.7007 6.6985 41.8638 7.03561 42.1248 6.98124L45.8546 6.17656L42.364 7.68805C42.1139 7.79679 42.19 8.15564 42.451 8.16652L46.2569 8.28615L42.5054 8.91684C42.2444 8.96033 42.2226 9.33007 42.4836 9.40619L46.1482 10.4284L42.3531 10.1456C42.0813 10.1239 41.9834 10.4827 42.2117 10.6132L45.5284 12.4836L41.9073 11.2983C41.6572 11.2113 41.4614 11.5375 41.6572 11.7224L44.4301 14.3322L41.2004 12.3205C40.9721 12.1791 40.7111 12.4401 40.8525 12.6684L42.9186 15.8655L40.2653 13.136C40.0804 12.9403 39.7651 13.136 39.8521 13.397L41.0917 16.9963L39.167 13.7124C39.0365 13.484 38.6777 13.5927 38.6994 13.8646L39.0473 17.6597L37.9599 14.0059C37.8838 13.745 37.5141 13.7776 37.4706 14.0386L36.8943 17.8011L36.7203 13.9951C36.7094 13.7232 36.3397 13.6688 36.2418 13.9081L34.7847 17.4313L35.5241 13.6906C35.5785 13.4296 35.2305 13.2774 35.0783 13.4949L32.8165 16.5614L34.4258 13.1143C34.5346 12.875 34.241 12.6467 34.0344 12.8207L31.1092 15.2565L33.5015 12.2878C33.6647 12.0812 33.4363 11.7876 33.1971 11.9072L29.7717 13.571L32.8056 11.2657C33.0231 11.1026 32.86 10.7654 32.599 10.8198L28.8691 11.6245L32.3597 10.113C32.6098 10.0043 32.5337 9.64541 32.2728 9.63454L28.4668 9.5149L32.2184 8.88422C32.4793 8.84072 32.5011 8.47098 32.2401 8.39487L28.5755 7.37269L32.3706 7.65543C32.6425 7.67718 32.7403 7.31834 32.512 7.18785L29.1953 5.31749L32.8165 6.50277C33.0666 6.58976 33.2623 6.26355 33.0666 6.07869L30.2937 3.46886L33.5233 5.48059C33.7516 5.62196 34.0126 5.36097 33.8713 5.13261L31.8052 1.9356L34.4584 4.66503C34.6433 4.86077 34.9587 4.66504 34.8717 4.40406L33.632 0.804712L35.5567 4.0887C35.6872 4.31706 36.0461 4.20833 36.0243 3.93648L35.6764 0.14137L36.7638 3.79511C36.8399 4.05609 37.2096 4.02347 37.2531 3.76249L37.8294 0Z" fill="url(#paint4_linear_394_149)"/>
<path d="M52.3809 52.8284C51.4784 44.6619 47.4223 36.7673 41.2675 31.2649C47.5528 35.6581 52.2504 42.15 54.6319 49.4792C55.4366 51.9259 55.9368 54.4487 56.1869 57.0041C56.3717 55.8406 56.4914 54.6553 56.5566 53.4483C57.5353 34.6468 43.0944 18.6074 24.2929 17.6287C15.039 17.1394 6.44839 20.4016 0 26.078C3.31662 25.4473 6.75287 25.1972 10.2652 25.382C32.8618 26.5673 50.4453 45.0643 50.8259 67.3455C52.2722 62.6478 52.9029 57.7109 52.3809 52.8284Z" fill="url(#paint5_linear_394_149)"/>
<path opacity="0.35" d="M54.6317 49.4683C55.4364 51.915 55.9366 54.427 56.1867 56.9824C56.3716 55.8189 56.4912 54.6445 56.5564 53.4483C57.5351 34.6468 43.0942 18.6074 24.2927 17.6288C19.4863 17.3786 14.8648 18.1398 10.6348 19.7166C11.8092 19.684 12.9836 19.6948 14.1689 19.7492C24.6951 20.3038 34.1339 24.5882 41.2673 31.2649C47.5526 35.6581 52.2502 42.1391 54.6317 49.4683Z" fill="url(#paint6_linear_394_149)"/>
<path opacity="0.35" d="M41.6592 31.6238C43.0293 32.9287 44.3016 34.3315 45.4869 35.8104C44.3342 34.3097 43.0511 32.907 41.6592 31.6238Z" fill="url(#paint7_linear_394_149)"/>
<defs>
<linearGradient id="paint0_linear_394_149" x1="66.3087" y1="-4.3284" x2="49.6104" y2="30.9905" gradientUnits="userSpaceOnUse">
<stop stop-color="#00E3C4"/>
<stop offset="1" stop-color="#00A687"/>
</linearGradient>
<linearGradient id="paint1_linear_394_149" x1="7.90289" y1="20.3128" x2="32.2546" y2="65.9935" gradientUnits="userSpaceOnUse">
<stop stop-color="#FCC500"/>
<stop offset="1" stop-color="#ED5F00"/>
</linearGradient>
<linearGradient id="paint2_linear_394_149" x1="9.55122" y1="15.0766" x2="33.9029" y2="60.7573" gradientUnits="userSpaceOnUse">
<stop stop-color="#FCC500"/>
<stop offset="1" stop-color="#ED5F00"/>
</linearGradient>
<linearGradient id="paint3_linear_394_149" x1="3.70881" y1="24.345" x2="33.2777" y2="53.8026" gradientUnits="userSpaceOnUse">
<stop stop-color="#00FCDA"/>
<stop offset="1" stop-color="#0078BD"/>
</linearGradient>
<linearGradient id="paint4_linear_394_149" x1="32.299" y1="3.27682" x2="42.7873" y2="14.9244" gradientUnits="userSpaceOnUse">
<stop stop-color="#FCC500"/>
<stop offset="1" stop-color="#ED5F00"/>
</linearGradient>
<linearGradient id="paint5_linear_394_149" x1="-1.45024" y1="-0.719301" x2="41.6284" y2="47.1211" gradientUnits="userSpaceOnUse">
<stop stop-color="#D259FF"/>
<stop offset="1" stop-color="#8900BD"/>
</linearGradient>
<linearGradient id="paint6_linear_394_149" x1="2.26339" y1="-5.67973" x2="44.9299" y2="41.703" gradientUnits="userSpaceOnUse">
<stop stop-color="#D259FF"/>
<stop offset="1" stop-color="#8900BD"/>
</linearGradient>
<linearGradient id="paint7_linear_394_149" x1="40.1145" y1="29.8024" x2="44.2744" y2="34.4222" gradientUnits="userSpaceOnUse">
<stop stop-color="#D259FF"/>
<stop offset="1" stop-color="#8900BD"/>
</linearGradient>
</defs>
</svg>
