<svg width="186" height="61" viewBox="0 0 186 61" fill="none" xmlns="http://www.w3.org/2000/svg">
<path d="M172.002 45V24.6H177.882V29.4H178.002V45H172.002ZM178.002 34.36L177.482 29.52C177.962 27.7867 178.748 26.4667 179.842 25.56C180.935 24.6533 182.295 24.2 183.922 24.2C184.428 24.2 184.802 24.2533 185.042 24.36V29.96C184.908 29.9067 184.722 29.88 184.482 29.88C184.242 29.8533 183.948 29.84 183.602 29.84C181.682 29.84 180.268 30.1867 179.362 30.88C178.455 31.5467 178.002 32.7067 178.002 34.36Z" fill="white"/>
<path d="M158.633 45.4C156.366 45.4 154.393 44.96 152.713 44.08C151.033 43.1733 149.726 41.92 148.793 40.32C147.886 38.72 147.433 36.88 147.433 34.8C147.433 32.6933 147.886 30.8533 148.793 29.28C149.726 27.68 151.019 26.44 152.673 25.56C154.326 24.6533 156.246 24.2 158.433 24.2C160.539 24.2 162.366 24.6267 163.913 25.48C165.459 26.3333 166.659 27.52 167.513 29.04C168.366 30.56 168.793 32.3467 168.793 34.4C168.793 34.8267 168.779 35.2267 168.753 35.6C168.726 35.9467 168.686 36.28 168.633 36.6H150.953V32.64H163.793L162.753 33.36C162.753 31.7067 162.353 30.4933 161.553 29.72C160.779 28.92 159.713 28.52 158.353 28.52C156.779 28.52 155.553 29.0533 154.673 30.12C153.819 31.1867 153.393 32.7867 153.393 34.92C153.393 37 153.819 38.5467 154.673 39.56C155.553 40.5733 156.859 41.08 158.593 41.08C159.553 41.08 160.379 40.92 161.073 40.6C161.766 40.28 162.286 39.76 162.633 39.04H168.273C167.606 41.0133 166.459 42.5733 164.833 43.72C163.233 44.84 161.166 45.4 158.633 45.4Z" fill="#F89722"/>
<path d="M136.413 45V23.24C136.413 20.7867 137.08 18.9333 138.413 17.68C139.746 16.4267 141.72 15.8 144.333 15.8C144.893 15.8 145.373 15.8267 145.773 15.88C146.2 15.9333 146.613 16.0267 147.013 16.16V20.76C146.826 20.68 146.6 20.6267 146.333 20.6C146.066 20.5467 145.746 20.52 145.373 20.52C144.36 20.52 143.613 20.76 143.133 21.24C142.653 21.72 142.413 22.4133 142.413 23.32V45H136.413ZM133.013 29.16V24.6H146.573V29.16H133.013Z" fill="white"/>
<path d="M110.83 45V24.6H116.71V29.4H116.83V45H110.83ZM125.03 45V32.36C125.03 31.24 124.736 30.4 124.15 29.84C123.59 29.28 122.763 29 121.67 29C120.736 29 119.896 29.2133 119.15 29.64C118.43 30.0667 117.856 30.6533 117.43 31.4C117.03 32.1467 116.83 33.0267 116.83 34.04L116.31 29.12C116.976 27.6267 117.95 26.44 119.23 25.56C120.536 24.6533 122.136 24.2 124.03 24.2C126.296 24.2 128.03 24.84 129.23 26.12C130.43 27.3733 131.03 29.0667 131.03 31.2V45H125.03Z" fill="white"/>
<path d="M96.3691 45.4C94.1291 45.4 92.1557 44.96 90.4491 44.08C88.7691 43.1733 87.4491 41.92 86.4891 40.32C85.5557 38.6933 85.0891 36.8267 85.0891 34.72C85.0891 32.6133 85.5557 30.7733 86.4891 29.2C87.4491 27.6267 88.7691 26.4 90.4491 25.52C92.1557 24.64 94.1291 24.2 96.3691 24.2C98.6357 24.2 100.609 24.64 102.289 25.52C103.996 26.4 105.316 27.6267 106.249 29.2C107.182 30.7733 107.649 32.6133 107.649 34.72C107.649 36.8267 107.169 38.6933 106.209 40.32C105.276 41.92 103.956 43.1733 102.249 44.08C100.569 44.96 98.6091 45.4 96.3691 45.4ZM96.3691 40.68C97.3024 40.68 98.1424 40.44 98.889 39.96C99.6624 39.48 100.276 38.8 100.729 37.92C101.182 37.0133 101.409 35.9333 101.409 34.68C101.409 32.84 100.916 31.4267 99.9291 30.44C98.9691 29.4267 97.7824 28.92 96.3691 28.92C94.9557 28.92 93.7557 29.4267 92.7691 30.44C91.8091 31.4533 91.3291 32.8667 91.3291 34.68C91.3291 35.9333 91.5557 37.0133 92.0091 37.92C92.4624 38.8 93.0624 39.48 93.8091 39.96C94.5824 40.44 95.4357 40.68 96.3691 40.68Z" fill="#F4E412"/>
<path d="M60 45V16.2H66.16V45H60ZM64.2 30.04L77.16 16.2H85.36L71.68 30.04H64.2ZM77.8 45L64.12 30.04H71.68L86.16 45H77.8Z" fill="white"/>
<path d="M181.229 60.12C180.549 60.12 179.957 59.988 179.453 59.724C178.949 59.452 178.557 59.076 178.277 58.596C178.005 58.116 177.869 57.564 177.869 56.94C177.869 56.308 178.005 55.756 178.277 55.284C178.557 54.804 178.945 54.432 179.441 54.168C179.937 53.896 180.513 53.76 181.169 53.76C181.801 53.76 182.349 53.888 182.813 54.144C183.277 54.4 183.637 54.756 183.893 55.212C184.149 55.668 184.277 56.204 184.277 56.82C184.277 56.948 184.273 57.068 184.265 57.18C184.257 57.284 184.245 57.384 184.229 57.48H178.925V56.292H182.777L182.465 56.508C182.465 56.012 182.345 55.648 182.105 55.416C181.873 55.176 181.553 55.056 181.145 55.056C180.673 55.056 180.305 55.216 180.041 55.536C179.785 55.856 179.657 56.336 179.657 56.976C179.657 57.6 179.785 58.064 180.041 58.368C180.305 58.672 180.697 58.824 181.217 58.824C181.505 58.824 181.753 58.776 181.961 58.68C182.169 58.584 182.325 58.428 182.429 58.212H184.121C183.921 58.804 183.577 59.272 183.089 59.616C182.609 59.952 181.989 60.12 181.229 60.12Z" fill="white"/>
<path d="M174.418 60.12C173.778 60.12 173.214 59.984 172.726 59.712C172.238 59.44 171.854 59.064 171.574 58.584C171.302 58.104 171.166 57.556 171.166 56.94C171.166 56.324 171.302 55.776 171.574 55.296C171.854 54.816 172.238 54.44 172.726 54.168C173.214 53.896 173.778 53.76 174.418 53.76C174.954 53.76 175.434 53.86 175.858 54.06C176.29 54.252 176.642 54.52 176.914 54.864C177.194 55.208 177.374 55.612 177.454 56.076H175.714C175.626 55.78 175.466 55.556 175.234 55.404C175.01 55.252 174.746 55.176 174.442 55.176C174.154 55.176 173.902 55.248 173.686 55.392C173.478 55.536 173.318 55.74 173.206 56.004C173.094 56.268 173.038 56.58 173.038 56.94C173.038 57.3 173.094 57.612 173.206 57.876C173.318 58.14 173.478 58.344 173.686 58.488C173.902 58.632 174.154 58.704 174.442 58.704C174.746 58.704 175.01 58.628 175.234 58.476C175.466 58.324 175.626 58.1 175.714 57.804H177.454C177.374 58.268 177.194 58.672 176.914 59.016C176.642 59.36 176.29 59.632 175.858 59.832C175.434 60.024 174.954 60.12 174.418 60.12Z" fill="white"/>
<path d="M164.216 60V53.88H165.98V55.32H166.016V60H164.216ZM168.476 60V56.208C168.476 55.872 168.388 55.62 168.212 55.452C168.044 55.284 167.796 55.2 167.468 55.2C167.188 55.2 166.936 55.264 166.712 55.392C166.496 55.52 166.324 55.696 166.196 55.92C166.076 56.144 166.016 56.408 166.016 56.712L165.86 55.236C166.06 54.788 166.352 54.432 166.736 54.168C167.128 53.896 167.608 53.76 168.176 53.76C168.856 53.76 169.376 53.952 169.736 54.336C170.096 54.712 170.276 55.22 170.276 55.86V60H168.476Z" fill="white"/>
<path d="M160.205 60.12C159.525 60.12 158.933 59.988 158.429 59.724C157.925 59.452 157.533 59.076 157.253 58.596C156.981 58.116 156.845 57.564 156.845 56.94C156.845 56.308 156.981 55.756 157.253 55.284C157.533 54.804 157.921 54.432 158.417 54.168C158.913 53.896 159.489 53.76 160.145 53.76C160.777 53.76 161.325 53.888 161.789 54.144C162.253 54.4 162.613 54.756 162.869 55.212C163.125 55.668 163.253 56.204 163.253 56.82C163.253 56.948 163.249 57.068 163.241 57.18C163.233 57.284 163.221 57.384 163.205 57.48H157.901V56.292H161.753L161.441 56.508C161.441 56.012 161.321 55.648 161.081 55.416C160.849 55.176 160.529 55.056 160.121 55.056C159.649 55.056 159.281 55.216 159.017 55.536C158.761 55.856 158.633 56.336 158.633 56.976C158.633 57.6 158.761 58.064 159.017 58.368C159.281 58.672 159.673 58.824 160.193 58.824C160.481 58.824 160.729 58.776 160.937 58.68C161.145 58.584 161.301 58.428 161.405 58.212H163.097C162.897 58.804 162.553 59.272 162.065 59.616C161.585 59.952 160.965 60.12 160.205 60.12Z" fill="white"/>
<path d="M152.638 60V53.88H154.402V55.32H154.438V60H152.638ZM154.438 56.808L154.282 55.356C154.426 54.836 154.662 54.44 154.99 54.168C155.318 53.896 155.726 53.76 156.214 53.76C156.366 53.76 156.478 53.776 156.55 53.808V55.488C156.51 55.472 156.454 55.464 156.382 55.464C156.31 55.456 156.222 55.452 156.118 55.452C155.542 55.452 155.118 55.556 154.846 55.764C154.574 55.964 154.438 56.312 154.438 56.808Z" fill="white"/>
<path d="M148.627 60.12C147.947 60.12 147.355 59.988 146.851 59.724C146.347 59.452 145.955 59.076 145.675 58.596C145.403 58.116 145.267 57.564 145.267 56.94C145.267 56.308 145.403 55.756 145.675 55.284C145.955 54.804 146.343 54.432 146.839 54.168C147.335 53.896 147.911 53.76 148.567 53.76C149.199 53.76 149.747 53.888 150.211 54.144C150.675 54.4 151.035 54.756 151.291 55.212C151.547 55.668 151.675 56.204 151.675 56.82C151.675 56.948 151.671 57.068 151.663 57.18C151.655 57.284 151.643 57.384 151.627 57.48H146.323V56.292H150.175L149.863 56.508C149.863 56.012 149.743 55.648 149.503 55.416C149.271 55.176 148.951 55.056 148.543 55.056C148.071 55.056 147.703 55.216 147.439 55.536C147.183 55.856 147.055 56.336 147.055 56.976C147.055 57.6 147.183 58.064 147.439 58.368C147.703 58.672 148.095 58.824 148.615 58.824C148.903 58.824 149.151 58.776 149.359 58.68C149.567 58.584 149.723 58.428 149.827 58.212H151.519C151.319 58.804 150.975 59.272 150.487 59.616C150.007 59.952 149.387 60.12 148.627 60.12Z" fill="white"/>
<path d="M141.961 60V53.472C141.961 52.736 142.161 52.18 142.561 51.804C142.961 51.428 143.553 51.24 144.337 51.24C144.505 51.24 144.649 51.248 144.769 51.264C144.897 51.28 145.021 51.308 145.141 51.348V52.728C145.085 52.704 145.017 52.688 144.937 52.68C144.857 52.664 144.761 52.656 144.649 52.656C144.345 52.656 144.121 52.728 143.977 52.872C143.833 53.016 143.761 53.224 143.761 53.496V60H141.961ZM140.941 55.248V53.88H145.009V55.248H140.941Z" fill="white"/>
<path d="M134.286 60V53.88H136.05V55.32H136.086V60H134.286ZM138.546 60V56.208C138.546 55.872 138.458 55.62 138.282 55.452C138.114 55.284 137.866 55.2 137.538 55.2C137.258 55.2 137.006 55.264 136.782 55.392C136.566 55.52 136.394 55.696 136.266 55.92C136.146 56.144 136.086 56.408 136.086 56.712L135.93 55.236C136.13 54.788 136.422 54.432 136.806 54.168C137.198 53.896 137.678 53.76 138.246 53.76C138.926 53.76 139.446 53.952 139.806 54.336C140.166 54.712 140.346 55.22 140.346 55.86V60H138.546Z" fill="white"/>
<path d="M129.948 60.12C129.276 60.12 128.684 59.988 128.172 59.724C127.668 59.452 127.272 59.076 126.984 58.596C126.704 58.108 126.564 57.548 126.564 56.916C126.564 56.284 126.704 55.732 126.984 55.26C127.272 54.788 127.668 54.42 128.172 54.156C128.684 53.892 129.276 53.76 129.948 53.76C130.628 53.76 131.22 53.892 131.724 54.156C132.236 54.42 132.632 54.788 132.912 55.26C133.192 55.732 133.332 56.284 133.332 56.916C133.332 57.548 133.188 58.108 132.9 58.596C132.62 59.076 132.224 59.452 131.712 59.724C131.208 59.988 130.62 60.12 129.948 60.12ZM129.948 58.704C130.228 58.704 130.48 58.632 130.704 58.488C130.936 58.344 131.12 58.14 131.256 57.876C131.392 57.604 131.46 57.28 131.46 56.904C131.46 56.352 131.312 55.928 131.016 55.632C130.728 55.328 130.372 55.176 129.948 55.176C129.524 55.176 129.164 55.328 128.868 55.632C128.58 55.936 128.436 56.36 128.436 56.904C128.436 57.28 128.504 57.604 128.64 57.876C128.776 58.14 128.956 58.344 129.18 58.488C129.412 58.632 129.668 58.704 129.948 58.704Z" fill="white"/>
<path d="M122.04 60.12C121.416 60.12 120.84 60.012 120.312 59.796C119.784 59.572 119.324 59.26 118.932 58.86C118.548 58.46 118.248 57.988 118.032 57.444C117.816 56.892 117.708 56.292 117.708 55.644C117.708 54.996 117.812 54.404 118.02 53.868C118.236 53.332 118.536 52.868 118.92 52.476C119.312 52.076 119.772 51.772 120.3 51.564C120.828 51.348 121.408 51.24 122.04 51.24C122.752 51.24 123.392 51.38 123.96 51.66C124.536 51.932 125.004 52.32 125.364 52.824C125.732 53.32 125.956 53.904 126.036 54.576H124.236C124.132 53.96 123.88 53.496 123.48 53.184C123.08 52.864 122.604 52.704 122.052 52.704C121.564 52.704 121.132 52.82 120.756 53.052C120.388 53.284 120.1 53.62 119.892 54.06C119.684 54.492 119.58 55.016 119.58 55.632C119.58 56.256 119.684 56.796 119.892 57.252C120.108 57.7 120.404 58.048 120.78 58.296C121.156 58.536 121.588 58.656 122.076 58.656C122.596 58.656 123.056 58.5 123.456 58.188C123.856 57.876 124.116 57.412 124.236 56.796H126.06C125.956 57.468 125.72 58.056 125.352 58.56C124.984 59.056 124.516 59.44 123.948 59.712C123.38 59.984 122.744 60.12 122.04 60.12Z" fill="white"/>
<path d="M112.682 60L108.218 55.248C107.962 54.968 107.762 54.72 107.618 54.504C107.474 54.288 107.374 54.084 107.318 53.892C107.262 53.692 107.234 53.48 107.234 53.256C107.234 52.888 107.338 52.552 107.546 52.248C107.754 51.944 108.046 51.7 108.422 51.516C108.798 51.332 109.234 51.24 109.73 51.24C110.21 51.24 110.638 51.328 111.014 51.504C111.398 51.672 111.698 51.916 111.914 52.236C112.138 52.548 112.25 52.924 112.25 53.364C112.25 53.86 112.066 54.32 111.698 54.744C111.338 55.16 110.814 55.484 110.126 55.716L109.274 54.696C109.778 54.52 110.138 54.312 110.354 54.072C110.578 53.832 110.69 53.576 110.69 53.304C110.69 53.072 110.614 52.876 110.462 52.716C110.31 52.548 110.082 52.464 109.778 52.464C109.482 52.464 109.262 52.548 109.118 52.716C108.982 52.884 108.914 53.06 108.914 53.244C108.914 53.372 108.938 53.508 108.986 53.652C109.042 53.796 109.162 53.984 109.346 54.216C109.53 54.44 109.81 54.748 110.186 55.14L114.986 60H112.682ZM109.43 60.12C108.742 60.12 108.138 60.012 107.618 59.796C107.106 59.58 106.706 59.284 106.418 58.908C106.13 58.532 105.986 58.1 105.986 57.612C105.986 56.924 106.214 56.356 106.67 55.908C107.134 55.452 107.822 55.08 108.734 54.792L109.562 55.836C109.098 55.996 108.734 56.16 108.47 56.328C108.214 56.496 108.034 56.672 107.93 56.856C107.834 57.032 107.786 57.224 107.786 57.432C107.786 57.816 107.942 58.116 108.254 58.332C108.574 58.548 109.022 58.656 109.598 58.656C109.974 58.656 110.342 58.6 110.702 58.488C111.062 58.376 111.39 58.192 111.686 57.936C111.982 57.68 112.218 57.34 112.394 56.916C112.57 56.492 112.658 55.968 112.658 55.344H114.35C114.35 55.904 114.266 56.428 114.098 56.916C113.938 57.404 113.71 57.848 113.414 58.248C113.118 58.64 112.766 58.976 112.358 59.256C111.95 59.536 111.498 59.752 111.002 59.904C110.506 60.048 109.982 60.12 109.43 60.12Z" fill="white"/>
<path d="M100.629 60.12C99.7335 60.12 99.0215 59.94 98.4935 59.58C97.9655 59.22 97.6775 58.724 97.6295 58.092H99.2375C99.2775 58.364 99.4135 58.572 99.6455 58.716C99.8855 58.852 100.213 58.92 100.629 58.92C101.005 58.92 101.277 58.868 101.445 58.764C101.621 58.652 101.709 58.496 101.709 58.296C101.709 58.144 101.657 58.028 101.553 57.948C101.457 57.86 101.277 57.788 101.013 57.732L100.029 57.528C99.3015 57.376 98.7655 57.148 98.4215 56.844C98.0775 56.532 97.9055 56.132 97.9055 55.644C97.9055 55.052 98.1335 54.592 98.5895 54.264C99.0455 53.928 99.6815 53.76 100.497 53.76C101.305 53.76 101.949 53.924 102.429 54.252C102.909 54.572 103.173 55.02 103.221 55.596H101.613C101.581 55.388 101.469 55.232 101.277 55.128C101.085 55.016 100.813 54.96 100.461 54.96C100.141 54.96 99.9015 55.008 99.7415 55.104C99.5895 55.192 99.5135 55.32 99.5135 55.488C99.5135 55.632 99.5775 55.748 99.7055 55.836C99.8335 55.916 100.045 55.988 100.341 56.052L101.445 56.28C102.061 56.408 102.525 56.648 102.837 57C103.157 57.344 103.317 57.752 103.317 58.224C103.317 58.824 103.081 59.292 102.609 59.628C102.145 59.956 101.485 60.12 100.629 60.12Z" fill="white"/>
<path d="M96.081 60.132C95.297 60.132 94.713 59.944 94.329 59.568C93.953 59.184 93.765 58.604 93.765 57.828V52.512L95.565 51.84V57.888C95.565 58.16 95.641 58.364 95.793 58.5C95.945 58.636 96.181 58.704 96.501 58.704C96.621 58.704 96.733 58.692 96.837 58.668C96.941 58.644 97.045 58.616 97.149 58.584V59.952C97.045 60.008 96.897 60.052 96.705 60.084C96.521 60.116 96.313 60.132 96.081 60.132ZM92.625 55.248V53.88H97.149V55.248H92.625Z" fill="white"/>
<path d="M86.0051 60V53.88H87.7691V55.32H87.8051V60H86.0051ZM90.2651 60V56.208C90.2651 55.872 90.1771 55.62 90.0011 55.452C89.8331 55.284 89.5851 55.2 89.2571 55.2C88.9771 55.2 88.7251 55.264 88.5011 55.392C88.2851 55.52 88.1131 55.696 87.9851 55.92C87.8651 56.144 87.8051 56.408 87.8051 56.712L87.6491 55.236C87.8491 54.788 88.1411 54.432 88.5251 54.168C88.9171 53.896 89.3971 53.76 89.9651 53.76C90.6451 53.76 91.1651 53.952 91.5251 54.336C91.8851 54.712 92.0651 55.22 92.0651 55.86V60H90.2651Z" fill="white"/>
<path d="M81.9945 60.12C81.3145 60.12 80.7225 59.988 80.2185 59.724C79.7145 59.452 79.3225 59.076 79.0425 58.596C78.7705 58.116 78.6345 57.564 78.6345 56.94C78.6345 56.308 78.7705 55.756 79.0425 55.284C79.3225 54.804 79.7105 54.432 80.2065 54.168C80.7025 53.896 81.2785 53.76 81.9345 53.76C82.5665 53.76 83.1145 53.888 83.5785 54.144C84.0425 54.4 84.4025 54.756 84.6585 55.212C84.9145 55.668 85.0425 56.204 85.0425 56.82C85.0425 56.948 85.0385 57.068 85.0305 57.18C85.0225 57.284 85.0105 57.384 84.9945 57.48H79.6905V56.292H83.5425L83.2305 56.508C83.2305 56.012 83.1105 55.648 82.8705 55.416C82.6385 55.176 82.3185 55.056 81.9105 55.056C81.4385 55.056 81.0705 55.216 80.8065 55.536C80.5505 55.856 80.4225 56.336 80.4225 56.976C80.4225 57.6 80.5505 58.064 80.8065 58.368C81.0705 58.672 81.4625 58.824 81.9825 58.824C82.2705 58.824 82.5185 58.776 82.7265 58.68C82.9345 58.584 83.0905 58.428 83.1945 58.212H84.8865C84.6865 58.804 84.3425 59.272 83.8545 59.616C83.3745 59.952 82.7545 60.12 81.9945 60.12Z" fill="white"/>
<path d="M74.4544 60L72.0424 53.88H73.9744L75.8584 59.592H74.8504L76.7224 53.88H78.6064L76.1944 60H74.4544Z" fill="white"/>
<path d="M65.6 60V51.36H67.448V60H65.6ZM66.464 60V58.584H72.032V60H66.464ZM66.464 56.28V54.888H71.612V56.28H66.464ZM66.464 52.776V51.36H71.888V52.776H66.464Z" fill="white"/>
<path d="M58.7946 8.01463C53.1346 7.71463 48.3146 12.0646 48.0146 17.7246C47.9646 18.6346 48.0446 19.5246 48.2246 20.3746C48.2646 19.8046 48.3446 19.2346 48.4646 18.6846C48.8646 16.7946 49.6946 15.0346 50.8446 13.5746C49.9346 15.2046 49.4246 17.0046 49.3346 18.8046C49.2946 19.6246 49.3446 20.4446 49.4746 21.2346C51.2346 15.2746 56.9046 11.0646 63.3846 11.4046C64.3846 11.4546 65.3546 11.6146 66.2846 11.8646C64.5046 9.65461 61.8346 8.17463 58.7946 8.01463Z" fill="url(#paint0_linear_17_46)"/>
<path d="M9.23 47.35C21.97 41.84 36.77 47.71 42.28 60.45C42.31 60.52 42.34 60.59 42.37 60.66C42.84 57.17 42.4 53.51 40.9 50.04C36.51 39.89 24.73 35.22 14.58 39.61C9.58 41.77 5.92 45.72 4 50.39C5.59 49.2 7.33 48.17 9.23 47.35Z" fill="url(#paint1_linear_17_46)"/>
<path opacity="0.51" d="M42.48 56.29C42.3 54.19 41.79 52.09 40.91 50.05C36.52 39.9 24.74 35.23 14.59 39.62C12.29 40.61 10.27 41.99 8.58002 43.64C8.87002 43.5 9.16001 43.36 9.45001 43.23C22.18 37.73 36.95 43.57 42.48 56.29Z" fill="url(#paint2_linear_17_46)"/>
<path d="M29.4 34.89C27.72 33.87 25.77 33.22 23.73 33.06C25.76 32.91 27.87 33.23 29.83 34.03C29.85 34.04 29.88 34.05 29.9 34.06C27.9 32.22 25.31 30.87 22.35 30.31C14.55 28.85 7.14 33.43 5.81 40.55C5.81 40.56 5.81 40.56 5.81 40.57C10.08 35.8 17.04 33.33 24.26 34.69C27.68 35.33 30.73 36.75 33.24 38.71C33.16 38.51 33.06 38.32 32.97 38.13C32.01 36.85 30.81 35.74 29.4 34.89Z" fill="url(#paint3_linear_17_46)"/>
<path d="M41.29 0.659973L41.45 4.15997C41.46 4.40997 41.8 4.45999 41.89 4.23999L43.23 1L42.55 4.43997C42.5 4.67997 42.82 4.81999 42.96 4.62L45.04 1.79999L43.56 4.96997C43.46 5.18997 43.73 5.39999 43.92 5.23999L46.61 3L44.41 5.72998C44.26 5.91998 44.47 6.18999 44.69 6.07999L47.84 4.54999L45.05 6.66998C44.85 6.81998 45 7.12999 45.24 7.07999L48.67 6.34L45.46 7.72998C45.23 7.82998 45.3 8.15998 45.54 8.16998L49.04 8.28L45.59 8.85999C45.35 8.89999 45.33 9.24 45.57 9.31L48.94 10.25L45.45 9.98999C45.2 9.96999 45.11 10.3 45.32 10.42L48.37 12.14L45.04 11.05C44.81 10.97 44.63 11.27 44.81 11.44L47.36 13.84L44.39 11.99C44.18 11.86 43.94 12.1 44.07 12.31L45.97 15.25L43.53 12.74C43.36 12.56 43.07 12.74 43.15 12.98L44.29 16.29L42.52 13.27C42.4 13.06 42.07 13.16 42.09 13.41L42.41 16.9L41.41 13.54C41.34 13.3 41 13.33 40.96 13.57L40.43 17.03L40.27 13.53C40.26 13.28 39.92 13.23 39.83 13.45L38.49 16.69L39.17 13.25C39.22 13.01 38.9 12.87 38.76 13.07L36.68 15.89L38.16 12.72C38.26 12.5 37.99 12.29 37.8 12.45L35.11 14.69L37.31 11.96C37.46 11.77 37.25 11.5 37.03 11.61L33.88 13.14L36.67 11.02C36.87 10.87 36.72 10.56 36.48 10.61L33.05 11.35L36.26 9.95999C36.49 9.85999 36.42 9.52999 36.18 9.51999L32.68 9.40997L36.13 8.82999C36.37 8.78999 36.39 8.44997 36.15 8.37997L32.78 7.43997L36.27 7.69998C36.52 7.71998 36.61 7.38999 36.4 7.26999L33.35 5.54999L36.68 6.63998C36.91 6.71998 37.09 6.42 36.91 6.25L34.36 3.84998L37.33 5.69998C37.54 5.82998 37.78 5.58997 37.65 5.37997L35.75 2.43997L38.19 4.94998C38.36 5.12998 38.65 4.94999 38.57 4.70999L37.43 1.39999L39.2 4.41998C39.32 4.62998 39.65 4.53 39.63 4.28L39.31 0.789978L40.31 4.14999C40.38 4.38999 40.72 4.36 40.76 4.12L41.29 0.659973Z" fill="url(#paint4_linear_17_46)"/>
<path d="M48.17 46.36C47.34 38.85 43.61 31.59 37.95 26.53C43.73 30.57 48.05 36.54 50.24 43.28C50.98 45.53 51.44 47.85 51.67 50.2C51.84 49.13 51.95 48.04 52.01 46.93C52.91 29.64 39.63 14.89 22.34 13.99C13.83 13.54 5.93 16.54 0 21.76C3.05 21.18 6.21 20.95 9.44 21.12C30.22 22.21 46.39 39.22 46.74 59.71C48.07 55.39 48.65 50.85 48.17 46.36Z" fill="url(#paint5_linear_17_46)"/>
<path opacity="0.35" d="M50.24 43.27C50.98 45.52 51.44 47.83 51.67 50.18C51.84 49.11 51.95 48.03 52.01 46.93C52.91 29.64 39.63 14.89 22.34 13.99C17.92 13.76 13.67 14.46 9.78003 15.91C10.86 15.88 11.94 15.89 13.03 15.94C22.71 16.45 31.39 20.39 37.95 26.53C43.73 30.57 48.05 36.53 50.24 43.27Z" fill="url(#paint6_linear_17_46)"/>
<path opacity="0.35" d="M38.31 26.86C39.57 28.06 40.74 29.35 41.83 30.71C40.77 29.33 39.59 28.04 38.31 26.86Z" fill="url(#paint7_linear_17_46)"/>
<defs>
<linearGradient id="paint0_linear_17_46" x1="65.6491" y1="-4.10467" x2="50.2932" y2="28.3749" gradientUnits="userSpaceOnUse">
<stop stop-color="#00E3C4"/>
<stop offset="1" stop-color="#00A687"/>
</linearGradient>
<linearGradient id="paint1_linear_17_46" x1="4.49713" y1="16.4583" x2="26.8912" y2="58.4668" gradientUnits="userSpaceOnUse">
<stop stop-color="#FCC500"/>
<stop offset="1" stop-color="#ED5F00"/>
</linearGradient>
<linearGradient id="paint2_linear_17_46" x1="6.01333" y1="11.6431" x2="28.4074" y2="53.6514" gradientUnits="userSpaceOnUse">
<stop stop-color="#FCC500"/>
<stop offset="1" stop-color="#ED5F00"/>
</linearGradient>
<linearGradient id="paint3_linear_17_46" x1="0.640627" y1="20.1663" x2="27.8324" y2="47.2559" gradientUnits="userSpaceOnUse">
<stop stop-color="#00FCDA"/>
<stop offset="1" stop-color="#0078BD"/>
</linearGradient>
<linearGradient id="paint4_linear_17_46" x1="34.5241" y1="4.01339" x2="44.1693" y2="14.7246" gradientUnits="userSpaceOnUse">
<stop stop-color="#FCC500"/>
<stop offset="1" stop-color="#ED5F00"/>
</linearGradient>
<linearGradient id="paint5_linear_17_46" x1="-1.33366" y1="-2.88302" x2="38.2819" y2="41.1114" gradientUnits="userSpaceOnUse">
<stop stop-color="#D259FF"/>
<stop offset="1" stop-color="#8900BD"/>
</linearGradient>
<linearGradient id="paint6_linear_17_46" x1="2.08163" y1="-7.44468" x2="41.3182" y2="36.129" gradientUnits="userSpaceOnUse">
<stop stop-color="#D259FF"/>
<stop offset="1" stop-color="#8900BD"/>
</linearGradient>
<linearGradient id="paint7_linear_17_46" x1="36.8895" y1="25.185" x2="40.715" y2="29.4334" gradientUnits="userSpaceOnUse">
<stop stop-color="#D259FF"/>
<stop offset="1" stop-color="#8900BD"/>
</linearGradient>
</defs>
</svg>
