<?xml version="1.0" standalone="no"?>
<!DOCTYPE svg PUBLIC "-//W3C//DTD SVG 20010904//EN"
 "http://www.w3.org/TR/2001/REC-SVG-20010904/DTD/svg10.dtd">
<svg version="1.0" xmlns="http://www.w3.org/2000/svg"
 width="64.000000pt" height="64.000000pt" viewBox="0 0 64.000000 64.000000"
 preserveAspectRatio="xMidYMid meet">

<g transform="translate(0.000000,64.000000) scale(0.100000,-0.100000)"
fill="#000000" stroke="none">
<path d="M90 542 l0 -98 -45 -34 -45 -34 0 -163 c0 -161 0 -164 25 -188 l24
-25 271 0 271 0 24 25 c25 24 25 27 25 188 l0 163 -45 34 c-25 19 -45 40 -45
47 0 24 -19 13 -22 -13 l-3 -25 -31 30 c-23 22 -30 37 -27 55 4 18 -2 29 -21
41 -14 10 -33 15 -41 11 -10 -3 -27 6 -45 24 -16 17 -33 30 -38 30 -5 0 -27
-41 -48 -91 -21 -51 -53 -109 -70 -131 -43 -50 -49 -73 -30 -103 20 -30 57
-41 86 -25 19 10 26 9 42 -7 19 -19 18 -20 -20 -31 -22 -7 -45 -19 -52 -28
-12 -13 -20 -8 -67 38 l-53 52 0 168 0 168 75 0 c43 0 75 4 75 10 0 6 -35 10
-85 10 l-85 0 0 -98z m390 -136 c-14 -14 -170 141 -163 161 4 10 31 -10 89
-68 56 -56 80 -87 74 -93z m-30 104 c0 -14 -14 -12 -28 2 -19 19 -14 30 8 18
11 -6 20 -15 20 -20z m-18 -121 c-4 -4 -31 -17 -60 -30 l-54 -22 -34 34 -34
35 27 62 27 63 68 -68 c37 -37 64 -70 60 -74z m-342 -24 c0 -25 -3 -45 -7 -45
-4 0 -17 10 -30 22 l-23 22 22 23 c31 33 38 29 38 -22z m503 17 c16 -15 16
-17 -5 -39 -31 -33 -38 -29 -38 23 0 47 4 49 43 16z m-63 -39 c0 -56 -2 -59
-52 -110 l-51 -52 -25 20 c-14 10 -31 19 -38 19 -18 0 -18 9 3 32 15 17 15 20
-7 43 -13 14 -22 26 -19 28 8 6 174 76 182 77 4 0 7 -26 7 -57z m-256 8 l27
-28 -32 -27 c-36 -31 -55 -30 -76 0 -12 19 -11 25 12 53 15 17 30 31 34 31 4
0 20 -13 35 -29z m-82 -192 c-4 -3 -38 -34 -75 -68 -93 -86 -97 -82 -97 108
l0 146 90 -90 c49 -49 86 -92 82 -96z m415 -116 c-12 -12 -25 -3 -90 54 l-75
68 86 88 87 87 3 -142 c2 -109 -1 -145 -11 -155z m-263 217 c-13 -13 -49 24
-39 40 5 9 14 6 28 -9 15 -14 18 -24 11 -31z m19 -64 c18 -8 70 -50 117 -95
l85 -80 -244 -1 c-241 0 -244 0 -226 20 12 13 33 20 69 22 55 3 65 20 17 28
l-30 5 54 48 c77 68 104 77 158 53z"/>
<path d="M433 624 c-3 -8 -1 -20 6 -27 8 -8 11 -4 11 16 0 30 -7 35 -17 11z"/>
<path d="M505 610 c-16 -16 -25 -33 -22 -37 8 -7 67 45 67 59 0 16 -17 8 -45
-22z"/>
<path d="M140 560 c0 -5 16 -10 35 -10 19 0 35 5 35 10 0 6 -16 10 -35 10 -19
0 -35 -4 -35 -10z"/>
<path d="M240 560 c0 -5 5 -10 11 -10 5 0 7 5 4 10 -3 6 -8 10 -11 10 -2 0 -4
-4 -4 -10z"/>
<path d="M510 530 c0 -5 9 -10 20 -10 11 0 20 5 20 10 0 6 -9 10 -20 10 -11 0
-20 -4 -20 -10z"/>
<path d="M140 490 c0 -5 18 -10 40 -10 22 0 40 5 40 10 0 6 -18 10 -40 10 -22
0 -40 -4 -40 -10z"/>
</g>
</svg>
