<?xml version="1.0" standalone="no"?>
<!DOCTYPE svg PUBLIC "-//W3C//DTD SVG 20010904//EN"
 "http://www.w3.org/TR/2001/REC-SVG-20010904/DTD/svg10.dtd">
<svg version="1.0" xmlns="http://www.w3.org/2000/svg"
 width="64.000000pt" height="64.000000pt" viewBox="0 0 64.000000 64.000000"
 preserveAspectRatio="xMidYMid meet">

<g transform="translate(0.000000,64.000000) scale(0.100000,-0.100000)"
fill="#000000" stroke="none">
<path d="M259 627 c-92 -34 -139 -102 -139 -198 0 -47 6 -65 45 -129 24 -41
45 -78 45 -82 0 -3 -17 -9 -38 -13 -56 -9 -115 -46 -127 -79 -8 -25 -6 -31 22
-57 49 -43 130 -63 253 -63 123 0 204 20 253 63 28 26 30 32 22 57 -12 33 -71
70 -127 79 -21 4 -38 10 -38 13 0 4 21 41 45 82 39 64 45 81 45 130 0 40 -7
70 -23 101 -43 81 -156 126 -238 96z m148 -45 c12 -7 35 -29 50 -49 24 -31 28
-46 28 -97 0 -59 -3 -65 -80 -188 -44 -70 -82 -128 -85 -128 -3 0 -41 58 -85
128 -77 123 -80 129 -80 188 0 51 4 66 28 97 31 40 56 57 102 67 35 7 90 -1
122 -18z m-132 -457 c19 -30 39 -55 45 -55 6 0 26 25 45 55 29 45 41 55 63 55
36 -1 99 -24 122 -45 84 -76 -254 -132 -418 -70 -77 30 -72 70 15 101 72 25
89 20 128 -41z"/>
<path d="M255 494 c-33 -35 -33 -84 -1 -121 34 -39 98 -39 132 0 27 32 30 66
9 106 -16 33 -33 41 -81 41 -25 0 -42 -8 -59 -26z m111 -29 c20 -31 15 -53
-18 -78 l-28 -21 -27 21 c-34 25 -39 47 -19 78 11 17 26 25 46 25 20 0 35 -8
46 -25z"/>
</g>
</svg>
