<?xml version="1.0" standalone="no"?>
<!DOCTYPE svg PUBLIC "-//W3C//DTD SVG 20010904//EN"
 "http://www.w3.org/TR/2001/REC-SVG-20010904/DTD/svg10.dtd">
<svg version="1.0" xmlns="http://www.w3.org/2000/svg"
 width="64.000000pt" height="64.000000pt" viewBox="0 0 64.000000 64.000000"
 preserveAspectRatio="xMidYMid meet">

<g transform="translate(0.000000,64.000000) scale(0.100000,-0.100000)"
fill="#000000" stroke="none">
<path d="M320 612 c-17 -13 -21 -24 -16 -40 4 -12 12 -22 17 -22 5 0 9 -8 9
-19 0 -11 -12 -24 -32 -32 -17 -7 -51 -28 -75 -46 -34 -26 -53 -33 -88 -33
-25 0 -45 -4 -45 -10 0 -5 18 -10 40 -10 44 0 47 -5 24 -38 -13 -19 -24 -22
-85 -22 -44 0 -68 -4 -64 -10 3 -5 35 -10 71 -10 62 0 64 -1 64 -25 0 -22 -4
-25 -35 -25 -19 0 -35 -4 -35 -10 0 -5 16 -10 35 -10 31 0 35 -3 35 -25 0 -23
-4 -25 -45 -25 -25 0 -45 -4 -45 -10 0 -5 22 -10 49 -10 47 0 49 -1 78 -49 52
-83 151 -125 256 -110 47 7 104 35 93 46 -3 3 -23 -2 -46 -11 -202 -80 -392
124 -292 315 85 163 319 160 405 -6 26 -51 28 -146 3 -193 -18 -34 -16 -50 3
-38 12 8 41 100 41 131 0 89 -75 200 -156 231 -45 17 -60 46 -29 58 26 9 18
55 -11 66 -40 16 -100 12 -124 -8z m130 -27 c0 -12 -13 -15 -59 -15 -56 0 -79
9 -64 24 3 3 33 6 65 6 45 0 58 -3 58 -15z m-30 -54 c0 -5 -13 -11 -30 -13
-20 -3 -30 0 -30 9 0 8 12 13 30 13 17 0 30 -4 30 -9z"/>
<path d="M326 446 c-43 -16 -91 -58 -112 -98 -18 -34 -18 -119 0 -161 18 -44
77 -94 127 -107 84 -23 179 22 218 103 27 56 27 112 -1 167 -43 85 -146 127
-232 96z m157 -42 c42 -28 77 -90 77 -139 0 -88 -80 -167 -168 -167 -100 0
-172 70 -172 167 0 75 42 134 117 161 48 17 97 10 146 -22z"/>
<path d="M380 395 c0 -8 5 -15 10 -15 6 0 10 7 10 15 0 8 -4 15 -10 15 -5 0
-10 -7 -10 -15z"/>
<path d="M435 330 c-32 -33 -60 -38 -86 -14 -10 9 -20 11 -23 6 -3 -5 1 -15 9
-22 8 -7 15 -20 15 -30 0 -41 61 -54 69 -15 2 11 19 37 37 58 19 20 34 39 34
42 0 15 -30 1 -55 -25z m-35 -65 c0 -8 -4 -15 -9 -15 -13 0 -22 16 -14 24 11
11 23 6 23 -9z"/>
<path d="M245 271 c-7 -12 12 -24 25 -16 11 7 4 25 -10 25 -5 0 -11 -4 -15 -9z"/>
<path d="M506 271 c-4 -5 -2 -12 3 -15 5 -4 12 -2 15 3 4 5 2 12 -3 15 -5 4
-12 2 -15 -3z"/>
<path d="M380 135 c0 -8 5 -15 10 -15 6 0 10 7 10 15 0 8 -4 15 -10 15 -5 0
-10 -7 -10 -15z"/>
<path d="M0 190 c0 -5 5 -10 10 -10 6 0 10 5 10 10 0 6 -4 10 -10 10 -5 0 -10
-4 -10 -10z"/>
<path d="M550 100 c0 -5 5 -10 11 -10 5 0 7 5 4 10 -3 6 -8 10 -11 10 -2 0 -4
-4 -4 -10z"/>
</g>
</svg>
