
<?xml version="1.0" standalone="no"?>
<!DOCTYPE svg PUBLIC "-//W3C//DTD SVG 20010904//EN"
 "http://www.w3.org/TR/2001/REC-SVG-20010904/DTD/svg10.dtd">
<svg version="1.0" xmlns="http://www.w3.org/2000/svg"
 width="64.000000pt" height="64.000000pt" viewBox="0 0 64.000000 64.000000"
 preserveAspectRatio="xMidYMid meet">

<g transform="translate(0.000000,64.000000) scale(0.100000,-0.100000)"
fill="#D51C55" stroke="none">
<path d="M342 625 c2 -10 24 -24 55 -34 93 -32 162 -100 194 -194 19 -57 46
-72 41 -23 -12 110 -138 236 -260 261 -28 6 -33 4 -30 -10z"/>
<path d="M65 569 c-77 -68 -81 -124 -18 -251 93 -187 354 -359 460 -304 40 20
93 82 93 107 0 11 -25 47 -57 80 -66 70 -91 75 -140 28 -31 -31 -32 -32 -58
-15 -46 30 -104 86 -126 123 l-22 34 32 33 c18 18 31 43 31 57 0 32 -106 139
-137 139 -12 0 -38 -14 -58 -31z m105 -36 c65 -58 67 -68 26 -113 -40 -45 -40
-52 11 -122 36 -49 87 -94 138 -121 29 -15 31 -14 67 19 21 19 42 34 46 34 4
0 32 -24 61 -54 l53 -54 -37 -41 c-33 -36 -42 -41 -82 -41 -121 0 -308 149
-383 306 -43 89 -41 137 7 186 20 21 41 38 45 38 4 0 26 -16 48 -37z"/>
<path d="M336 511 c-5 -7 10 -19 36 -30 52 -23 90 -62 112 -115 12 -29 19 -37
27 -29 23 23 -17 104 -73 147 -40 30 -92 44 -102 27z"/>
</g>
</svg>
