<svg width="50" height="50" viewBox="0 0 50 50" fill="none" xmlns="http://www.w3.org/2000/svg">
<path d="M25 1V49M1 25H49M34.3913 25C34.3913 30.1867 30.1867 34.3913 25 34.3913C19.8133 34.3913 15.6087 30.1867 15.6087 25C15.6087 19.8133 19.8133 15.6087 25 15.6087C30.1867 15.6087 34.3913 19.8133 34.3913 25ZM43.7826 25C43.7826 35.3733 35.3733 43.7826 25 43.7826C14.6267 43.7826 6.21739 35.3733 6.21739 25C6.21739 14.6267 14.6267 6.21739 25 6.21739C35.3733 6.21739 43.7826 14.6267 43.7826 25Z" stroke="#52048E" stroke-width="1.75" stroke-linecap="round" stroke-linejoin="round"/>
</svg>
