<svg width="80" height="183" viewBox="0 0 80 183" fill="none" xmlns="http://www.w3.org/2000/svg">
<path d="M38.933 45.6826C30.4905 45.6826 23.6221 52.551 23.6221 60.9935C23.6221 69.4363 30.4905 76.3048 38.933 76.3048C47.3758 76.3048 54.2443 69.4363 54.2443 60.9935C54.2443 52.551 47.3758 45.6826 38.933 45.6826ZM38.933 70.5389C33.6696 70.5389 29.3879 66.2565 29.3879 60.9935C29.3879 55.7301 33.67 51.4484 38.933 51.4484C44.1964 51.4484 48.4785 55.7301 48.4785 60.9935C48.4788 66.2565 44.1964 70.5389 38.933 70.5389Z" fill="#F4E412"/>
<path d="M54.3724 134.998V123.654H54.5939C68.3115 123.654 79.471 112.495 79.471 98.7772V24.8767C79.4713 11.1598 68.3115 0 54.5939 0H25.3906C11.6729 0 0.513504 11.1598 0.513504 24.8767V98.7779C0.513504 111.857 10.6605 122.603 23.4945 123.575V134.999C23.4945 138.981 26.6176 142.238 30.5413 142.472V163.379H9.59965C4.30629 163.379 0 167.686 0 172.979C0 178.273 4.30629 182.579 9.60001 182.579H18.9461C20.5387 182.579 21.8289 181.289 21.8289 179.696C21.8289 178.103 20.5383 176.813 18.9461 176.813H9.60001C7.48537 176.813 5.76585 175.093 5.76585 172.979C5.76585 170.864 7.48609 169.144 9.60001 169.144H33.4244H44.4433H67.8719C69.9865 169.144 71.7067 170.864 71.7067 172.979C71.7067 175.093 69.9861 176.813 67.8719 176.813H27.7866C26.194 176.813 24.9038 178.104 24.9038 179.696C24.9038 181.289 26.194 182.579 27.7866 182.579H67.8719C73.1659 182.579 77.4726 178.272 77.4726 172.978C77.4726 167.685 73.1659 163.378 67.8719 163.378H47.3257V142.471C51.2494 142.237 54.3724 138.98 54.3724 134.998ZM6.279 87.2448H17.2198C18.8124 87.2448 20.1026 85.9547 20.1026 84.3621C20.1026 82.7695 18.812 81.4793 17.2198 81.4793H6.279V75.5609H17.2198C18.8124 75.5609 20.1026 74.2703 20.1026 72.6781C20.1026 71.0859 18.812 69.7954 17.2198 69.7954H6.279V63.8762H17.2198C18.8124 63.8762 20.1026 62.586 20.1026 60.9934C20.1026 59.4009 18.812 58.1107 17.2198 58.1107H6.279V52.1915H17.2198C18.8124 52.1915 20.1026 50.9013 20.1026 49.3087C20.1026 47.7162 18.812 46.426 17.2198 46.426H6.279V40.5068H17.2198C18.8124 40.5068 20.1026 39.2163 20.1026 37.6241C20.1026 36.0318 18.812 34.7413 17.2198 34.7413H6.279V27.7598H45.2756C46.8682 27.7598 48.1583 26.4693 48.1583 24.8771C48.1583 23.2849 46.8678 21.9943 45.2756 21.9943H6.49652C7.89047 12.8194 15.8323 5.76585 25.3906 5.76585H54.5942C64.1525 5.76585 72.094 12.819 73.4883 21.9943H54.1164C52.5238 21.9943 51.2337 23.2849 51.2337 24.8771C51.2337 26.4696 52.5238 27.7598 54.1164 27.7598H73.7058V34.741H62.765C61.1724 34.741 59.8823 36.0311 59.8823 37.6237C59.8823 39.2163 61.1724 40.5064 62.765 40.5064H73.7058V46.4256H62.765C61.1724 46.4256 59.8823 47.7162 59.8823 49.3084C59.8823 50.9006 61.1724 52.1911 62.765 52.1911H73.7058V58.11H62.765C61.1724 58.11 59.8823 59.4005 59.8823 60.9927C59.8823 62.5853 61.1724 63.8755 62.765 63.8755H73.7058V69.7946H62.765C61.1724 69.7946 59.8823 71.0848 59.8823 72.6774C59.8823 74.27 61.1724 75.5601 62.765 75.5601H73.7058V81.4793H62.765C61.1724 81.4793 59.8823 82.7695 59.8823 84.3621C59.8823 85.9547 61.1724 87.2448 62.765 87.2448H73.7058V95.8941H6.279V87.2448ZM25.3906 117.889C15.8323 117.889 7.89083 110.835 6.49652 101.66H73.4879C72.0936 110.835 64.1522 117.889 54.5939 117.889H51.4897H26.3773H25.3906ZM41.5602 163.379H36.3068V142.494H41.5602V163.379ZM46.8771 136.728H44.4429H33.424H30.9899C30.036 136.728 29.26 135.952 29.26 134.998V123.654H48.6069V134.998C48.6069 135.952 47.831 136.728 46.8771 136.728Z" fill="#F4E412"/>
</svg>
